<svg xmlns="http://www.w3.org/2000/svg" viewBox="0 0 130.44 104.75"><defs><style>.cls-1{fill:red;}.cls-2{fill:#fff;}</style></defs><title>logombe</title><g id="Layer_2" data-name="Layer 2"><g id="Layer_1-2" data-name="Layer 1"><path class="cls-1" d="M7.37,99.66v5.09l10.25-.66,10.25-.66,2.53-.2,2.53-.2,3.22-.25,3.22-.25,3.16-.25,3.16-.25,8.25-.4,8.25-.4,1.82-.1,1.83-.1,2.05-.12,2.16-.1,2.76-.18,2.85-.08,2.11-.12,2.37-.06,3-.1s7.07-.14,8.09-.2,9.57.05,9.57.05l4.06.08,5.37.25,5,.21,2.53.17.52,0,.38,0,.38,0,.32,0,.32,0,.16,0,.16,0,.13,0,.13,0,.23-.08.11-.09.05-.11,0-.15,0-.22v-.16l0-.15s-.09-.3-.18-.36a1.26,1.26,0,0,0-.42-.17l-.52-.09-.62-.09-.75-.09-.69-.06L116.7,99l-2-.13-1.16-.09-3-.19L108,98.45c-1.28-.08-1.47-.09-2.8-.16-1.59-.08-4.7-.21-3.09-.17,1.44,0-3.05-.12-3.05-.12l-2.62-.17-3.75-.08-7.5-.25H77.56l-13.65.13-13.74.21L39.92,98l-10.26.2-7.06.4-7.06.4-4.09.31Z"/><rect class="cls-2" x="36.44" width="55.24" height="54.18"/><path d="M75.81,7.83l-.89-.53L54.57,6.58c-.9.48-2.28,1.17-3.19,1.78Z"/><path d="M82,13.14l-.64-.66-33.87-.86c-.56.63-1.37,1.57-1.86,2.27Z"/><path d="M85.2,18.55,85,18l-41.43-.82a22.78,22.78,0,0,0-.95,2.17Z"/><path d="M46.24,21.85l-4.3-.1a11.41,11.41,0,0,0-.43,2.07l4.73-.07Z"/><polygon points="81.77 23.18 86.54 23.02 86.52 22.84 81.77 22.73 81.77 23.18"/><path d="M46.24,26.4l-4.93-.11c0,.2-.06.63-.06.83,0,.53,0,.82,0,1.34l5-.07Z"/><polygon points="81.77 27.75 86.92 27.63 86.92 27.38 81.77 27.29 81.77 27.75"/><path d="M84.83,36.41l-.26.53L44,37.72a21.93,21.93,0,0,1-1-2.14Z"/><polygon points="81.77 32.25 86.3 32.15 86.37 31.91 81.77 31.81 81.77 32.25"/><path d="M46.24,32.92,42.18,33a6.85,6.85,0,0,1-.57-2.11l4.64.1Z"/><polygon points="60.94 31.41 62.21 31.41 62.21 33.23 57.48 33.23 57.48 31.41 58.73 31.41 58.73 24.79 55.53 33.23 53.97 33.23 50.67 24.79 50.67 31.41 52.02 31.41 52.02 33.23 47.19 33.23 47.19 31.41 48.45 31.41 48.45 23.66 47.19 23.66 47.19 21.84 51.55 21.84 54.7 29.88 57.85 21.84 62.21 21.84 62.21 23.66 60.94 23.66 60.94 31.41"/><path d="M66.16,31.33h1.22A3,3,0,0,0,69,31a1.49,1.49,0,0,0,.65-1.24A1.54,1.54,0,0,0,69,28.51a2.66,2.66,0,0,0-1.61-.33H66.16Zm0-4.94H67.3a2.42,2.42,0,0,0,1.5-.29,1.38,1.38,0,0,0-.08-2.22,2.58,2.58,0,0,0-1.4-.22H66.18Zm-3.48,5H64V23.66H62.7V21.84h5.16a3.93,3.93,0,0,1,2.41.59,2.71,2.71,0,0,1,1.09,2.26,2.6,2.6,0,0,1-1.51,2.42,3,3,0,0,1,2,2.94,3.17,3.17,0,0,1-1.09,2.41,3.79,3.79,0,0,1-2.66.76H62.7Z"/><polygon points="72.29 31.41 73.56 31.41 73.56 23.66 72.29 23.66 72.29 21.84 80.89 21.84 80.89 25.27 78.68 25.27 78.68 23.79 75.77 23.79 75.77 26.63 79.15 26.63 79.15 28.32 75.77 28.32 75.77 31.33 78.68 31.33 78.68 29.79 80.89 29.79 80.89 33.23 72.29 33.23 72.29 31.41"/><path d="M76.14,46l-1.27.72-20.35.72c-.9-.48-2.38-1.26-3.28-1.87Z"/><path d="M81.79,41.08l-.55.67-33.68.76a26.53,26.53,0,0,1-1.76-2.08Z"/><path class="cls-2" d="M124,64.64a3.8,3.8,0,0,0-3.21-1.78A3.74,3.74,0,0,0,117,66.71a3.84,3.84,0,0,0,7.07,2.07h2.4a6,6,0,0,1-5.66,4.06,6.07,6.07,0,0,1-6-6.15,6,6,0,0,1,6-6,4.94,4.94,0,0,1,3.61,1.43V60.92h1.83v3.72Z"/><rect class="cls-2" x="125.98" y="70.32" width="2.05" height="2.3"/><polygon class="cls-2" points="10.7 60.97 7.54 69.2 4.37 60.97 0 60.97 0 62.83 1.27 62.83 1.27 70.76 0 70.76 0 72.62 4.85 72.62 4.85 70.76 3.49 70.76 3.49 63.99 6.8 72.62 8.37 72.62 11.58 63.99 11.58 70.76 10.33 70.76 10.33 72.62 15.07 72.62 15.07 70.76 13.8 70.76 13.8 62.83 15.07 62.83 15.07 60.97 10.7 60.97"/><path class="cls-2" d="M21.71,63.54h0l-1.49,4h3ZM23.14,71h1.29l-.68-1.75H19.64L19,71h1.25v1.63H15.48V70.76h1.24l3.39-7.93H18.83V61h3.9l4.08,9.79H28v1.86H23.14Z"/><polygon class="cls-2" points="32.02 70.76 33.28 70.76 33.28 72.62 28.53 72.62 28.53 70.76 29.8 70.76 29.8 62.83 28.53 62.83 28.53 60.97 33.28 60.97 33.28 62.83 32.02 62.83 32.02 70.76"/><polygon class="cls-2" points="33.75 70.76 35.02 70.76 35.02 62.83 33.75 62.83 33.75 60.97 38.5 60.97 38.5 62.83 37.24 62.83 37.24 70.63 40.03 70.63 40.03 69.09 42.25 69.09 42.25 72.62 33.75 72.62 33.75 70.76"/><path class="cls-2" d="M48.67,70.68h1.22a2.92,2.92,0,0,0,1.62-.29,1.52,1.52,0,0,0,.65-1.27,1.58,1.58,0,0,0-.63-1.32,2.63,2.63,0,0,0-1.62-.34H48.67Zm0-5.06h1.12a2.4,2.4,0,0,0,1.5-.29,1.43,1.43,0,0,0-.08-2.27,2.57,2.57,0,0,0-1.4-.23H48.69Zm-3.49,5.14h1.26V62.83H45.19V61h5.17a3.9,3.9,0,0,1,2.41.6,2.79,2.79,0,0,1,1.09,2.32,2.66,2.66,0,0,1-1.52,2.48,3.11,3.11,0,0,1,2,3,3.26,3.26,0,0,1-1.09,2.46,3.74,3.74,0,0,1-2.68.78H45.19Z"/><polygon class="cls-2" points="76.91 72.62 72.13 72.62 72.13 70.91 73.27 70.91 71.18 68.25 69.08 70.91 70.23 70.91 70.23 72.62 65.45 72.62 65.45 70.76 66.59 70.76 69.84 66.72 66.78 62.83 65.58 62.83 65.58 60.97 70.38 60.97 70.38 62.69 69.3 62.69 71.18 65.16 73.06 62.69 71.98 62.69 71.98 60.97 76.8 60.97 76.8 62.83 75.62 62.83 72.49 66.72 75.72 70.76 76.91 70.76 76.91 72.62"/><polygon class="cls-2" points="77.25 70.76 78.52 70.76 78.52 62.83 77.25 62.83 77.25 60.97 85.88 60.97 85.88 64.48 83.66 64.48 83.66 62.96 80.74 62.96 80.74 65.87 84.14 65.87 84.14 67.6 80.74 67.6 80.74 70.68 83.66 70.68 83.66 69.09 85.88 69.09 85.88 72.62 77.25 72.62 77.25 70.76"/><path class="cls-2" d="M88.29,69.16A1.69,1.69,0,0,0,90,70.94a1.58,1.58,0,0,0,1.71-1.6c0-1.16-1.09-1.45-2-1.71a6.48,6.48,0,0,1-2.28-1,3.07,3.07,0,0,1-1.27-2.55,3.44,3.44,0,0,1,3.53-3.36,2.53,2.53,0,0,1,2.07.9V61h1.7v3.13h-2A1.5,1.5,0,0,0,90,62.59,1.46,1.46,0,0,0,88.39,64c0,1.14,1,1.39,1.91,1.65a6.91,6.91,0,0,1,2.49,1.06A3.06,3.06,0,0,1,94,69.2a3.57,3.57,0,0,1-3.69,3.66,2.76,2.76,0,0,1-2.24-1v.77H86.27V69.16Z"/><polygon class="cls-2" points="96.45 70.76 97.73 70.76 97.73 62.83 96.45 62.83 96.45 60.97 105.08 60.97 105.08 64.48 102.87 64.48 102.87 62.96 99.95 62.96 99.95 65.87 103.34 65.87 103.34 67.6 99.95 67.6 99.95 70.68 102.87 70.68 102.87 69.09 105.08 69.09 105.08 72.62 96.45 72.62 96.45 70.76"/><polygon class="cls-2" points="111.5 70.76 112.77 70.76 112.77 72.62 108 72.62 108 70.76 109.27 70.76 109.27 62.95 107.56 62.95 107.56 64.64 105.8 64.64 105.8 60.97 114.97 60.97 114.97 64.64 113.21 64.64 113.21 62.95 111.5 62.95 111.5 70.76"/><path class="cls-2" d="M128.81,61.6c.25,0,.64,0,.64-.32S129.2,61,129,61h-.51v.63Zm.83,1h-.26l-.51-.82h-.4v.82h-.22V60.82H129a.81.81,0,0,1,.43.09.43.43,0,0,1,.2.38c0,.35-.24.48-.56.49Zm.61-.89a1.4,1.4,0,1,0-1.4,1.41,1.4,1.4,0,0,0,1.4-1.41m-3,0a1.59,1.59,0,1,1,1.6,1.59,1.59,1.59,0,0,1-1.6-1.59"/><path class="cls-2" d="M56.93,70.28h7v-7h-7ZM54.3,66.8a6.11,6.11,0,1,1,6.1,6.07,6.11,6.11,0,0,1-6.1-6.07"/><path class="cls-2" d="M95,1.8c.26,0,.67,0,.67-.34s-.26-.32-.49-.32h-.53V1.8Zm.88,1H95.6L95.06,2h-.42v.86h-.23V1h.82a.89.89,0,0,1,.46.09.46.46,0,0,1,.21.41c0,.37-.26.51-.59.51Zm.64-.94A1.47,1.47,0,1,0,95,3.38,1.47,1.47,0,0,0,96.51,1.9m-3.15,0A1.68,1.68,0,1,1,95,3.58,1.68,1.68,0,0,1,93.36,1.9"/><path class="cls-2" d="M115,88.67a3.1,3.1,0,0,1,.13-.53,1.36,1.36,0,0,1,.26-.46,1.21,1.21,0,0,1,.42-.32,1.42,1.42,0,0,1,.61-.12,1.34,1.34,0,0,1,.62.13,1.26,1.26,0,0,1,.41.32,1.31,1.31,0,0,1,.24.45,2.16,2.16,0,0,1,.09.52ZM113.07,91a3.19,3.19,0,0,0,.72,1.23A3.37,3.37,0,0,0,115,93a4.67,4.67,0,0,0,1.75.3,7.47,7.47,0,0,0,.79,0l.74-.11a6,6,0,0,0,.63-.15,2.86,2.86,0,0,0,.45-.17l-.28-1.71a4.28,4.28,0,0,1-.91.26,6.1,6.1,0,0,1-1.14.11,2.45,2.45,0,0,1-1.45-.38,1.41,1.41,0,0,1-.61-1h4.78c0-.11,0-.24,0-.39s0-.28,0-.4a4,4,0,0,0-.92-2.85,3.29,3.29,0,0,0-2.51-1,3.58,3.58,0,0,0-1.32.25,3.29,3.29,0,0,0-1.14.75,3.7,3.7,0,0,0-.8,1.24,4.53,4.53,0,0,0-.31,1.73,4.85,4.85,0,0,0,.23,1.53m-1.08.54a1.91,1.91,0,0,1-.61-.13.85.85,0,0,1-.35-.26.87.87,0,0,1-.16-.38,2.71,2.71,0,0,1,0-.51V82.16l-2.11.34v8.2a4.23,4.23,0,0,0,.12,1.07,1.7,1.7,0,0,0,.45.81,2.23,2.23,0,0,0,.91.52,5.26,5.26,0,0,0,1.49.2Zm-5.11-3.72a3.53,3.53,0,0,0-.63-1.23,2.74,2.74,0,0,0-1-.79,3.34,3.34,0,0,0-1.4-.28,3.75,3.75,0,0,0-.82.09,3.88,3.88,0,0,0-.74.24V82.16l-2.11.34V92.9c.19.06.41.11.65.16s.5.1.77.14l.82.09q.42,0,.8,0a4.6,4.6,0,0,0,1.64-.27,3.36,3.36,0,0,0,1.22-.79,3.42,3.42,0,0,0,.76-1.23,4.71,4.71,0,0,0,.26-1.61,5.63,5.63,0,0,0-.21-1.59m-2.38,3.11a1.52,1.52,0,0,1-1.3.6l-.53,0-.4,0V87.62a1.83,1.83,0,0,1,.52-.21,2.45,2.45,0,0,1,.65-.09q1.5,0,1.5,2a2.58,2.58,0,0,1-.44,1.57M98,82.63a1.34,1.34,0,0,0-1.77,0,1.3,1.3,0,0,0,0,1.83,1.34,1.34,0,0,0,1.77,0,1.3,1.3,0,0,0,0-1.83m.18,3.07H96.07v7.45h2.11Zm-8,5.81a6.9,6.9,0,0,1-1.11-.33l-.35,1.71a6.89,6.89,0,0,0,.91.28,6.75,6.75,0,0,0,1.65.17,4.13,4.13,0,0,0,2.34-.57,1.9,1.9,0,0,0,.83-1.67,2.91,2.91,0,0,0-.11-.82,1.71,1.71,0,0,0-.37-.65,2.83,2.83,0,0,0-.71-.54,8.53,8.53,0,0,0-1.15-.5c-.22-.09-.41-.16-.56-.24a2.4,2.4,0,0,1-.35-.2.47.47,0,0,1-.17-.19.56.56,0,0,1,0-.23q0-.55,1-.55a4.49,4.49,0,0,1,1,.1,7.7,7.7,0,0,1,.8.23l.37-1.64a6,6,0,0,0-1-.26,6.79,6.79,0,0,0-1.3-.12,3.4,3.4,0,0,0-2.14.61A2,2,0,0,0,89,87.76a2.47,2.47,0,0,0,.15.92,1.92,1.92,0,0,0,.44.66,2.68,2.68,0,0,0,.69.47,9.32,9.32,0,0,0,.9.38,6,6,0,0,1,.95.43.54.54,0,0,1,.31.45.43.43,0,0,1-.24.44,2.09,2.09,0,0,1-.82.11,5.36,5.36,0,0,1-1.12-.12m-6.87,0a6.83,6.83,0,0,1-1.1-.33l-.35,1.71a6.61,6.61,0,0,0,2.56.45,4.13,4.13,0,0,0,2.34-.57,1.89,1.89,0,0,0,.83-1.67,2.8,2.8,0,0,0-.11-.82,1.68,1.68,0,0,0-.37-.65,2.79,2.79,0,0,0-.71-.54,8.52,8.52,0,0,0-1.15-.5c-.22-.09-.41-.16-.56-.24a2.22,2.22,0,0,1-.35-.2.45.45,0,0,1-.17-.19.56.56,0,0,1,0-.23q0-.55,1-.55a4.49,4.49,0,0,1,1,.1,7.6,7.6,0,0,1,.8.23l.37-1.64a6.08,6.08,0,0,0-1-.26A6.81,6.81,0,0,0,85,85.5a3.4,3.4,0,0,0-2.14.61,2,2,0,0,0-.78,1.66,2.45,2.45,0,0,0,.16.92,1.9,1.9,0,0,0,.44.66,2.68,2.68,0,0,0,.69.47,9.46,9.46,0,0,0,.9.38,6,6,0,0,1,.95.43.54.54,0,0,1,.31.45.44.44,0,0,1-.24.44,2.11,2.11,0,0,1-.82.11,5.36,5.36,0,0,1-1.12-.12M78.17,91a1.26,1.26,0,0,1-1.11.57A1.28,1.28,0,0,1,75.94,91a2.69,2.69,0,0,1-.4-1.55,2.61,2.61,0,0,1,.4-1.54,1.29,1.29,0,0,1,1.12-.56,1.27,1.27,0,0,1,1.11.56,2.66,2.66,0,0,1,.39,1.54A2.74,2.74,0,0,1,78.17,91m2.27-3.15a3.61,3.61,0,0,0-.75-1.23,3.38,3.38,0,0,0-1.15-.79,4,4,0,0,0-2.94,0,3.43,3.43,0,0,0-1.16.79,3.63,3.63,0,0,0-.77,1.23,4.48,4.48,0,0,0-.28,1.6A4.57,4.57,0,0,0,73.66,91a3.63,3.63,0,0,0,.75,1.25,3.3,3.3,0,0,0,1.15.8,4.12,4.12,0,0,0,3,0,3.31,3.31,0,0,0,1.15-.8A3.53,3.53,0,0,0,80.45,91a4.84,4.84,0,0,0,.25-1.61,4.59,4.59,0,0,0-.27-1.6m-11.5-2.64a1.91,1.91,0,0,1,.68.23,1.15,1.15,0,0,1,.42.43,1.41,1.41,0,0,1,.15.68,1.2,1.2,0,0,1-.58,1.16,3.76,3.76,0,0,1-1.73.31h-.69V85.14l.4,0h.48a5.45,5.45,0,0,1,.88.06m-2.43-1.89a12.91,12.91,0,0,0-1.53.2v9.67h2.21V89.86h.69a6.14,6.14,0,0,0,3.4-.79,2.84,2.84,0,0,0,1.19-2.55A2.8,2.8,0,0,0,71.29,84a6.14,6.14,0,0,0-3.37-.77c-.41,0-.88,0-1.42.06m-8.13,5.4a2.92,2.92,0,0,1,.13-.53,1.39,1.39,0,0,1,.26-.46,1.23,1.23,0,0,1,.43-.32,1.42,1.42,0,0,1,.61-.12,1.36,1.36,0,0,1,.62.13,1.28,1.28,0,0,1,.41.32,1.35,1.35,0,0,1,.24.45,2.16,2.16,0,0,1,.09.52ZM56.45,91a3.21,3.21,0,0,0,.72,1.23A3.39,3.39,0,0,0,58.4,93a4.68,4.68,0,0,0,1.75.3,7.5,7.5,0,0,0,.79,0q.4,0,.74-.11a6,6,0,0,0,.63-.15,2.79,2.79,0,0,0,.45-.17l-.28-1.71a4.23,4.23,0,0,1-.91.26,6.07,6.07,0,0,1-1.14.11A2.45,2.45,0,0,1,59,91.15a1.4,1.4,0,0,1-.61-1h4.79c0-.11,0-.24,0-.39s0-.28,0-.4a4,4,0,0,0-.92-2.85,3.29,3.29,0,0,0-2.51-1,3.59,3.59,0,0,0-1.32.25,3.32,3.32,0,0,0-1.14.75,3.7,3.7,0,0,0-.8,1.24,4.55,4.55,0,0,0-.31,1.73A4.8,4.8,0,0,0,56.45,91m-1.09.54a1.9,1.9,0,0,1-.61-.13.8.8,0,0,1-.51-.64,2.63,2.63,0,0,1,0-.51V82.16l-2.11.34v8.2a4.33,4.33,0,0,0,.12,1.07,1.71,1.71,0,0,0,.45.81,2.23,2.23,0,0,0,.91.52,5.29,5.29,0,0,0,1.5.2ZM50.2,87.81a3.33,3.33,0,0,0-.76-1.22,3.39,3.39,0,0,0-1.22-.78,4.59,4.59,0,0,0-1.64-.28c-.26,0-.52,0-.8,0l-.82.09-.77.13-.65.16v9.81h2.11V93a4,4,0,0,0,.74.24,3.83,3.83,0,0,0,.82.08,3.3,3.3,0,0,0,1.4-.28,2.79,2.79,0,0,0,1-.79A3.46,3.46,0,0,0,50.25,91a5.43,5.43,0,0,0,.21-1.57,4.71,4.71,0,0,0-.26-1.62m-3.39,3.7a2.5,2.5,0,0,1-.64-.09,1.85,1.85,0,0,1-.52-.21V87.4l.4,0,.52,0a1.52,1.52,0,0,1,1.3.59,2.54,2.54,0,0,1,.44,1.56q0,2-1.5,2M39.37,91a1.26,1.26,0,0,1-1.11.57A1.28,1.28,0,0,1,37.14,91a2.69,2.69,0,0,1-.4-1.55,2.61,2.61,0,0,1,.4-1.54,1.29,1.29,0,0,1,1.12-.56,1.27,1.27,0,0,1,1.11.56,2.64,2.64,0,0,1,.39,1.54A2.72,2.72,0,0,1,39.37,91m2.27-3.15a3.61,3.61,0,0,0-.75-1.23,3.35,3.35,0,0,0-1.15-.79,4,4,0,0,0-2.94,0,3.45,3.45,0,0,0-1.16.79,3.64,3.64,0,0,0-.76,1.23,4.46,4.46,0,0,0-.28,1.6A4.59,4.59,0,0,0,34.86,91a3.65,3.65,0,0,0,.75,1.25,3.27,3.27,0,0,0,1.15.8,4.12,4.12,0,0,0,3,0,3.31,3.31,0,0,0,1.15-.8A3.47,3.47,0,0,0,41.65,91a4.81,4.81,0,0,0,.26-1.61,4.57,4.57,0,0,0-.27-1.6m-13.16.86a2.93,2.93,0,0,1,.14-.53,1.36,1.36,0,0,1,.26-.46,1.19,1.19,0,0,1,.43-.32,1.4,1.4,0,0,1,.61-.12,1.35,1.35,0,0,1,.62.13,1.25,1.25,0,0,1,.41.32,1.3,1.3,0,0,1,.24.45,2.12,2.12,0,0,1,.09.52ZM26.55,91a3.23,3.23,0,0,0,.72,1.23,3.4,3.4,0,0,0,1.23.81,4.69,4.69,0,0,0,1.75.3,7.52,7.52,0,0,0,.79,0l.74-.11a5.83,5.83,0,0,0,.63-.15,2.7,2.7,0,0,0,.45-.17l-.28-1.71a4.25,4.25,0,0,1-.92.26,6.06,6.06,0,0,1-1.14.11,2.45,2.45,0,0,1-1.44-.38,1.41,1.41,0,0,1-.61-1h4.79c0-.11,0-.24,0-.39s0-.28,0-.4a4,4,0,0,0-.92-2.85,3.29,3.29,0,0,0-2.51-1,3.59,3.59,0,0,0-1.32.25,3.31,3.31,0,0,0-1.14.75,3.68,3.68,0,0,0-.8,1.24,4.54,4.54,0,0,0-.3,1.73A4.85,4.85,0,0,0,26.55,91m-4.68-5.84a1.91,1.91,0,0,1,.67.23,1.15,1.15,0,0,1,.42.43,1.39,1.39,0,0,1,.15.68,1.2,1.2,0,0,1-.58,1.16,3.78,3.78,0,0,1-1.73.31h-.69V85.14l.4,0H21a5.47,5.47,0,0,1,.88.06m-2.44-1.89a12.82,12.82,0,0,0-1.53.2v9.67h2.21V89.86h.69a6.16,6.16,0,0,0,3.4-.79,2.84,2.84,0,0,0,1.19-2.55A2.8,2.8,0,0,0,24.23,84a6.14,6.14,0,0,0-3.37-.77c-.41,0-.88,0-1.42.06m-8.26,4.09h1.64l-.34,1.74H10.84Zm.78-4H10.11l-.46,2.41h-2v1.63H9.33L9,89.11H7.66v1.63h1l-.46,2.41h1.84l.46-2.41h1.65l-.46,2.41h1.84L14,90.74h2V89.11H14.32l.33-1.74H16V85.74H15l.46-2.41H13.59l-.46,2.41H11.49Z"/></g></g></svg>